<mxfile host="app.diagrams.net" modified="2025-10-22T00:00:00.000Z" agent="drawio-desktop" version="24.7.0">
  <diagram id="components" name="Components">
    <mxGraphModel dx="1200" dy="800" grid="1" gridSize="10" guides="1" tooltips="1" connect="1" arrows="1" fold="1" page="1" pageScale="1" pageWidth="1920" pageHeight="1080" math="0" shadow="0">
      <root>
        <mxCell id="0" />
        <mxCell id="1" parent="0" />

        <!-- UML-style components with stereotypes -->
        <mxCell id="cmp_ui" value="&lt;b&gt;UI&lt;/b&gt;&lt;br/&gt;&amp;lt;&amp;lt;Component&amp;gt;&amp;gt;&lt;br/&gt;AlbumsFragment, AlbumsAdapter, AlbumDetailFragment" style="rounded=0;whiteSpace=wrap;html=1;strokeColor=#000000;fillColor=#FFFFFF;fontColor=#000000;" vertex="1" parent="1">
          <mxGeometry x="60" y="100" width="420" height="130" as="geometry" />
        </mxCell>

        <mxCell id="cmp_vm" value="&lt;b&gt;ViewModel&lt;/b&gt;&lt;br/&gt;&amp;lt;&amp;lt;Component&amp;gt;&amp;gt;&lt;br/&gt;AlbumsViewModel (LiveData)" style="rounded=0;whiteSpace=wrap;html=1;strokeColor=#000000;fillColor=#FFFFFF;fontColor=#000000;" vertex="1" parent="1">
          <mxGeometry x="60" y="260" width="420" height="100" as="geometry" />
        </mxCell>

        <mxCell id="cmp_repo" value="&lt;b&gt;Repository&lt;/b&gt;&lt;br/&gt;&amp;lt;&amp;lt;Component&amp;gt;&amp;gt;&lt;br/&gt;AlbumRepository (DTO â†’ UI)" style="rounded=0;whiteSpace=wrap;html=1;strokeColor=#000000;fillColor=#FFFFFF;fontColor=#000000;" vertex="1" parent="1">
          <mxGeometry x="60" y="400" width="420" height="100" as="geometry" />
        </mxCell>

        <mxCell id="cmp_service" value="&lt;b&gt;Service Adapter&lt;/b&gt;&lt;br/&gt;&amp;lt;&amp;lt;Component&amp;gt;&amp;gt;&lt;br/&gt;AlbumsService (Retrofit)" style="rounded=0;whiteSpace=wrap;html=1;strokeColor=#000000;fillColor=#FFFFFF;fontColor=#000000;" vertex="1" parent="1">
          <mxGeometry x="60" y="540" width="420" height="100" as="geometry" />
        </mxCell>

        <mxCell id="cmp_network" value="&lt;b&gt;Network&lt;/b&gt;&lt;br/&gt;&amp;lt;&amp;lt;Component&amp;gt;&amp;gt;&lt;br/&gt;NetworkModule (Retrofit/OkHttp/Moshi)" style="rounded=0;whiteSpace=wrap;html=1;strokeColor=#000000;fillColor=#FFFFFF;fontColor=#000000;" vertex="1" parent="1">
          <mxGeometry x="60" y="680" width="420" height="110" as="geometry" />
        </mxCell>

        <!-- Edges -->
        <mxCell id="e1" edge="1" source="cmp_ui" target="cmp_vm" style="endArrow=block;strokeColor=#000000;" parent="1">
          <mxGeometry relative="1" as="geometry" />
        </mxCell>
        <mxCell id="e2" edge="1" source="cmp_vm" target="cmp_repo" style="endArrow=block;strokeColor=#000000;" parent="1">
          <mxGeometry relative="1" as="geometry" />
        </mxCell>
        <mxCell id="e3" edge="1" source="cmp_repo" target="cmp_service" style="endArrow=block;strokeColor=#000000;" parent="1">
          <mxGeometry relative="1" as="geometry" />
        </mxCell>
        <mxCell id="e4" edge="1" source="cmp_service" target="cmp_network" style="endArrow=block;strokeColor=#000000;" parent="1">
          <mxGeometry relative="1" as="geometry" />
        </mxCell>

        <!-- Notes -->
        <mxCell id="note" value="SafeArgs: AlbumsFragment -&gt; AlbumDetailFragment (albumId)" style="text;html=1;fontColor=#000000;" vertex="1" parent="1">
          <mxGeometry x="520" y="540" width="540" height="40" as="geometry" />
        </mxCell>
      </root>
    </mxGraphModel>
  </diagram>
</mxfile>

